<?xml version="1.0" encoding="UTF-8"?>
<svg xmlns="http://www.w3.org/2000/svg" xmlns:xlink="http://www.w3.org/1999/xlink" width="96px" height="96px" viewBox="0 0 96 96" version="1.1">
<g id="surface87853">
<path style=" stroke:none;fill-rule:nonzero;fill:rgb(84.313725%,87.45098%,88.627451%);fill-opacity:1;" d="M 12 86 L 12 66 L 86 66 C 87.105469 66 88 66.894531 88 68 L 88 84 C 88 85.105469 87.105469 86 86 86 Z M 12 86 "/>
<path style=" stroke:none;fill-rule:nonzero;fill:rgb(69.019608%,74.509804%,77.254902%);fill-opacity:1;" d="M 66.324219 66 L 58.457031 66 L 24.578125 86 L 32.445312 86 Z M 66.324219 66 "/>
<path style=" stroke:none;fill-rule:nonzero;fill:rgb(54.901961%,61.960784%,100%);fill-opacity:1;" d="M 72 86 L 72 66 L 86 66 C 87.105469 66 88 66.894531 88 68 L 88 84 C 88 85.105469 87.105469 86 86 86 Z M 72 86 "/>
<path style=" stroke:none;fill-rule:nonzero;fill:rgb(36.078431%,41.960784%,75.294118%);fill-opacity:1;" d="M 68 66 L 68 86 L 52 86 L 52 66 Z M 68 66 "/>
<path style=" stroke:none;fill-rule:nonzero;fill:rgb(24.705882%,31.764706%,70.980392%);fill-opacity:1;" d="M 52 74.457031 L 66.324219 66 L 58.457031 66 L 52 69.8125 Z M 52 74.457031 "/>
<path style=" stroke:none;fill-rule:nonzero;fill:rgb(18.823529%,24.705882%,62.352941%);fill-opacity:1;" d="M 48 66 L 48 86 L 32 86 L 32 66 Z M 48 66 "/>
<path style=" stroke:none;fill-rule:nonzero;fill:rgb(15.686275%,20.784314%,57.647059%);fill-opacity:1;" d="M 48 72.171875 L 32 81.617188 L 32 86 L 32.445312 86 L 48 76.816406 Z M 48 72.171875 "/>
<path style=" stroke:none;fill-rule:nonzero;fill:rgb(84.313725%,87.45098%,88.627451%);fill-opacity:1;" d="M 83.722656 48.761719 L 75.589844 34.984375 C 75.027344 34.03125 73.800781 33.71875 72.847656 34.277344 L 12 70.199219 L 12 76.769531 L 17.449219 86 L 24.578125 86 L 83.015625 51.5 C 83.96875 50.941406 84.285156 49.710938 83.722656 48.761719 Z M 83.722656 48.761719 "/>
<path style=" stroke:none;fill-rule:nonzero;fill:rgb(69.019608%,74.509804%,77.254902%);fill-opacity:1;" d="M 57.75 43.191406 L 50.648438 47.382812 L 29.785156 82.929688 L 36.882812 78.734375 Z M 57.75 43.191406 "/>
<path style=" stroke:none;fill-rule:nonzero;fill:rgb(50.588235%,78.039216%,51.764706%);fill-opacity:1;" d="M 70.960938 58.617188 L 60.792969 41.394531 L 72.847656 34.277344 C 73.800781 33.714844 75.027344 34.03125 75.589844 34.984375 L 83.722656 48.761719 C 84.285156 49.714844 83.96875 50.941406 83.015625 51.503906 Z M 70.960938 58.617188 "/>
<path style=" stroke:none;fill-rule:nonzero;fill:rgb(26.27451%,62.745098%,27.843137%);fill-opacity:1;" d="M 57.351562 43.429688 L 67.519531 60.652344 L 53.742188 68.785156 L 43.574219 51.5625 Z M 57.351562 43.429688 "/>
<path style=" stroke:none;fill-rule:nonzero;fill:rgb(18.039216%,49.019608%,19.607843%);fill-opacity:1;" d="M 40.128906 53.597656 L 50.296875 70.816406 L 36.519531 78.953125 L 26.351562 61.730469 Z M 40.128906 53.597656 "/>
<path style=" stroke:none;fill-rule:nonzero;fill:rgb(18.039216%,49.019608%,19.607843%);fill-opacity:1;" d="M 40.128906 53.597656 L 50.296875 70.816406 L 36.519531 78.953125 L 26.351562 61.730469 Z M 40.128906 53.597656 "/>
<path style=" stroke:none;fill-rule:nonzero;fill:rgb(84.313725%,87.45098%,88.627451%);fill-opacity:1;" d="M 63.011719 22.375 L 49.214844 14.277344 C 48.261719 13.714844 47.035156 14.035156 46.476562 14.988281 L 12 73.714844 L 12 80.558594 L 21.273438 86 L 27.980469 86 L 63.722656 25.113281 C 64.285156 24.160156 63.964844 22.9375 63.011719 22.375 Z M 63.011719 22.375 "/>
<path style=" stroke:none;fill-rule:nonzero;fill:rgb(10.588235%,36.862745%,12.54902%);fill-opacity:1;" d="M 43.574219 59.4375 L 34.308594 75.21875 L 36.515625 78.953125 L 36.882812 78.734375 L 45.898438 63.375 Z M 43.574219 59.4375 "/>
<path style=" stroke:none;fill-rule:nonzero;fill:rgb(21.960784%,55.686275%,23.529412%);fill-opacity:1;" d="M 57.480469 43.652344 L 57.347656 43.429688 L 50.648438 47.382812 L 45.890625 55.492188 L 48.214844 59.433594 Z M 57.480469 43.652344 "/>
<path style=" stroke:none;fill-rule:nonzero;fill:rgb(100%,84.313725%,25.098039%);fill-opacity:1;" d="M 56.636719 37.1875 L 39.386719 27.058594 L 46.476562 14.984375 C 47.035156 14.035156 48.261719 13.714844 49.214844 14.273438 L 63.011719 22.375 C 63.964844 22.933594 64.285156 24.15625 63.722656 25.113281 Z M 56.636719 37.1875 "/>
<path style=" stroke:none;fill-rule:nonzero;fill:rgb(100%,76.862745%,0%);fill-opacity:1;" d="M 37.363281 30.511719 L 54.609375 40.636719 L 46.511719 54.433594 L 29.261719 44.308594 Z M 37.363281 30.511719 "/>
<path style=" stroke:none;fill-rule:nonzero;fill:rgb(100%,59.607843%,0%);fill-opacity:1;" d="M 27.234375 47.757812 L 44.484375 57.882812 L 36.382812 71.683594 L 19.136719 61.558594 Z M 27.234375 47.757812 "/>
<path style=" stroke:none;fill-rule:nonzero;fill:rgb(84.313725%,87.45098%,88.627451%);fill-opacity:1;" d="M 32 86 L 12 86 L 12 12 C 12 10.894531 12.894531 10 14 10 L 30 10 C 31.105469 10 32 10.894531 32 12 Z M 32 86 "/>
<path style=" stroke:none;fill-rule:nonzero;fill:rgb(100%,54.117647%,50.196078%);fill-opacity:1;" d="M 32 26 L 12 26 L 12 12 C 12 10.894531 12.894531 10 14 10 L 30 10 C 31.105469 10 32 10.894531 32 12 Z M 32 26 "/>
<path style=" stroke:none;fill-rule:nonzero;fill:rgb(100%,32.156863%,32.156863%);fill-opacity:1;" d="M 12 30 L 32 30 L 32 46 L 12 46 Z M 12 30 "/>
<path style=" stroke:none;fill-rule:nonzero;fill:rgb(83.529412%,0%,0%);fill-opacity:1;" d="M 12 50 L 32 50 L 32 66 L 12 66 Z M 12 50 "/>
<path style=" stroke:none;fill-rule:nonzero;fill:rgb(27.058824%,35.294118%,39.215686%);fill-opacity:1;" d="M 22 74 C 20.894531 74 20 74.894531 20 76 C 20 77.105469 20.894531 78 22 78 C 23.105469 78 24 77.105469 24 76 C 24 74.894531 23.105469 74 22 74 Z M 22 74 "/>
<path style=" stroke:none;fill-rule:nonzero;fill:rgb(56.470588%,64.313725%,68.235294%);fill-opacity:1;" d="M 32 71.304688 L 32 81.617188 L 36.515625 78.953125 Z M 32 71.304688 "/>
<path style=" stroke:none;fill-rule:nonzero;fill:rgb(69.019608%,74.509804%,77.254902%);fill-opacity:1;" d="M 32 69.105469 L 32 79.152344 L 36.386719 71.683594 Z M 32 45.914062 L 32 50.554688 L 36 52.902344 L 36 48.265625 Z M 32 45.914062 "/>
<path style=" stroke:none;fill-rule:nonzero;fill:rgb(100%,67.058824%,0%);fill-opacity:1;" d="M 32 45.914062 L 36 48.265625 L 36 32.835938 L 32 39.648438 Z M 32 45.914062 "/>
<path style=" stroke:none;fill-rule:nonzero;fill:rgb(96.078431%,48.627451%,0%);fill-opacity:1;" d="M 32 69.105469 L 36 71.453125 L 36 52.902344 L 32 50.554688 Z M 32 69.105469 "/>
</g>
</svg>
